<?xml version="1.0" ?><svg xmlns="http://www.w3.org/2000/svg" xmlns:xlink="http://www.w3.org/1999/xlink" version="1.1" viewBox="0 0 512 512" style="enable-background:new 0 0 512 512;" xml:space="preserve"><g id="_x33_8_Calculator"><g><linearGradient id="SVGID_1_" gradientUnits="userSpaceOnUse" x1="284.9663" y1="-205.8513" x2="226.5783" y2="880.1656"><stop offset="0" style="stop-color:#EAE9FE"/><stop offset="0.4236" style="stop-color:#EEEEFE"/><stop offset="0.8967" style="stop-color:#FBFBFF"/><stop offset="1" style="stop-color:#FFFFFF"/></linearGradient><path style="fill:url(#SVGID_1_);" d="M468.836,264.275c-9.502-7.393-20.977-13.763-25.396-24.961    c-6.009-15.229,3.597-31.571,9.261-46.931c17.296-46.9-4.903-102.439-44.732-132.645    c-75.982-57.623-224.302-37.425-245.028,42.219c-8.768,33.692,6.94,72.131-9.131,103.013    c-20.278,38.966-74.073,41.594-108.719,58.921C2.169,285.358-6.419,332.1,24.365,367.686    c11.304,13.068,25.769,22.07,36.136,36.348c15.001,20.659,23.415,43.504,43.486,60.545c28.263,23.996,75.517,29.946,100.538,2.586    c14.09-15.407,18.675-38.106,34.054-52.225c20.245-18.586,52.242-16.086,78.004-6.514c25.762,9.571,49.655,25.026,76.789,29.381    c42.426,6.81,87.917-18.085,105.053-57.489C515.561,340.912,502.748,290.664,468.836,264.275z"/><g><path style="fill:#EDEDED;" d="M442.895,118.172v275.655c0,16.458-13.342,29.801-29.801,29.801H170.965     c-16.458,0-29.801-13.342-29.801-29.801V118.172c0-16.458,13.342-29.801,29.801-29.801h242.129     C429.553,88.371,442.895,101.713,442.895,118.172z"/><path style="fill:#386E93;" d="M442.896,217.985v-99.813c0-16.459-13.342-29.801-29.801-29.801H170.966     c-16.459,0-29.801,13.342-29.801,29.801v99.813H442.896z"/><path style="fill:#2769FD;" d="M413.096,180.269v-54.646c0-4.115-3.336-7.45-7.45-7.45H178.417c-4.115,0-7.45,3.336-7.45,7.45     v54.646c0,4.115,3.336,7.45,7.45,7.45h227.229C409.76,187.719,413.096,184.383,413.096,180.269z"/><path style="fill:#386E93;" d="M230.877,266.582v27.447c0,8.229-6.671,14.9-14.9,14.9h-27.526c-8.229,0-14.9-6.671-14.9-14.9     v-27.447c0-8.229,6.671-14.9,14.9-14.9h27.526C224.206,251.682,230.877,258.353,230.877,266.582z"/><path style="fill:#386E93;" d="M320.693,266.582v27.447c0,8.229-6.671,14.9-14.9,14.9h-27.526c-8.229,0-14.9-6.671-14.9-14.9     v-27.447c0-8.229,6.671-14.9,14.9-14.9h27.526C314.022,251.682,320.693,258.353,320.693,266.582z"/><path style="fill:#5EDB6B;" d="M230.877,347.582v27.447c0,8.229-6.671,14.9-14.9,14.9h-27.526c-8.229,0-14.9-6.671-14.9-14.9     v-27.447c0-8.229,6.671-14.9,14.9-14.9h27.526C224.206,332.682,230.877,339.353,230.877,347.582z"/><path style="fill:#2769FD;" d="M320.693,347.582v27.447c0,8.229-6.671,14.9-14.9,14.9h-27.526c-8.229,0-14.9-6.671-14.9-14.9     v-27.447c0-8.229,6.671-14.9,14.9-14.9h27.526C314.022,332.682,320.693,339.353,320.693,347.582z"/><path style="fill:#FF5859;" d="M410.534,266.603v108.4c0,8.242-6.705,14.947-14.947,14.947h-27.519     c-8.242,0-14.877-6.705-14.877-14.947v-108.4c0-8.242,6.635-14.947,14.877-14.947h27.519     C403.829,251.656,410.534,258.361,410.534,266.603z"/><circle style="fill:#F9BB40;" cx="135.894" cy="356.839" r="66.788"/><circle style="fill:#D8901D;" cx="135.894" cy="356.839" r="47.148"/><path style="fill:#EDEDED;" d="M381.863,338.043c-3.237,0-5.87-2.649-5.87-5.904v-5.45h-5.45c-3.255,0-5.904-2.634-5.904-5.87     c0-3.255,2.649-5.904,5.904-5.904h5.45v-5.484c0-3.237,2.634-5.87,5.87-5.87c3.255,0,5.904,2.634,5.904,5.87v5.484h5.45     c3.237,0,5.87,2.649,5.87,5.904c0,3.237-2.634,5.87-5.87,5.87h-5.45v5.45C387.766,335.394,385.117,338.043,381.863,338.043z"/><path style="fill:#332E8E;" d="M413.095,84.622H170.966c-18.499,0-33.55,15.051-33.55,33.55c0,56.041,0,111.963,0,168.168     c-39.731-0.848-72.061,31.213-72.061,70.499c0,38.896,31.643,70.54,70.54,70.54c52.781,0,212.81,0,277.2,0     c18.499,0,33.55-15.051,33.55-33.552c0-24.212,0-242.872,0-275.654C446.645,99.673,431.593,84.622,413.095,84.622z      M72.855,356.839c0-34.758,28.279-63.037,63.04-63.037c34.758,0,63.037,28.279,63.037,63.037c0,34.761-28.279,63.04-63.037,63.04     C101.134,419.878,72.855,391.599,72.855,356.839z M177.301,294.029v-27.446c0-6.147,5.002-11.15,11.15-11.15h27.527     c6.147,0,11.15,5.002,11.15,11.15v27.446c0,6.15-5.002,11.152-11.15,11.152h-27.527     C182.304,305.181,177.301,300.178,177.301,294.029z M203.411,336.433h12.567c6.147,0,11.15,5.002,11.15,11.15v27.446     c0,6.147-5.002,11.15-11.15,11.15h-15.963c4.108-8.941,6.417-18.874,6.417-29.341     C206.432,349.745,205.368,342.897,203.411,336.433z M413.095,419.878c-258.036-0.072-242.225,0.174-245.231-0.192     c11.601-5.926,21.36-14.956,28.156-26.006h19.959c10.283,0,18.65-8.367,18.65-18.65v-27.446c0-10.283-8.367-18.65-18.65-18.65     h-15.313c-2.54-5.874-5.859-11.331-9.822-16.252h25.135c10.283,0,18.65-8.367,18.65-18.652v-27.446     c0-10.283-8.367-18.65-18.65-18.65h-27.527c-10.283,0-18.65,8.367-18.65,18.65v27.446c0,0.34,0.033,0.672,0.051,1.008     c-7.575-4.179-15.998-6.991-24.936-8.138v-65.162h294.229v172.09C439.145,408.191,427.458,419.878,413.095,419.878z      M439.145,214.236H144.916v-96.064c0-14.363,11.687-26.05,26.05-26.05h242.129c14.363,0,26.05,11.687,26.05,26.05V214.236z"/><path style="fill:#332E8E;" d="M405.646,114.422H178.417c-6.177,0-11.201,5.024-11.201,11.201v54.646     c0,6.177,5.024,11.201,11.201,11.201h227.229c6.177,0,11.201-5.024,11.201-11.201v-54.646     C416.847,119.446,411.823,114.422,405.646,114.422z M409.347,180.269c0,2.041-1.66,3.701-3.701,3.701H178.417     c-2.041,0-3.701-1.66-3.701-3.701v-54.646c0-2.041,1.66-3.701,3.701-3.701h227.229c2.041,0,3.701,1.66,3.701,3.701V180.269z"/><path style="fill:#332E8E;" d="M305.792,247.932h-27.524c-10.283,0-18.65,8.367-18.65,18.65v27.446     c0,10.286,8.367,18.652,18.65,18.652h27.524c10.283,0,18.65-8.367,18.65-18.652v-27.446     C324.442,256.299,316.076,247.932,305.792,247.932z M316.942,294.029c0,6.15-5.002,11.152-11.15,11.152h-27.524     c-6.147,0-11.15-5.002-11.15-11.152v-27.446c0-6.147,5.002-11.15,11.15-11.15h27.524c6.147,0,11.15,5.002,11.15,11.15V294.029z"/><path style="fill:#332E8E;" d="M305.792,328.933h-27.524c-10.283,0-18.65,8.367-18.65,18.65v27.446     c0,10.283,8.367,18.65,18.65,18.65h27.524c10.283,0,18.65-8.367,18.65-18.65v-27.446     C324.442,337.3,316.076,328.933,305.792,328.933z M316.942,375.03c0,6.147-5.002,11.15-11.15,11.15h-27.524     c-6.147,0-11.15-5.002-11.15-11.15v-27.446c0-6.147,5.002-11.15,11.15-11.15h27.524c6.147,0,11.15,5.002,11.15,11.15V375.03z"/><path style="fill:#332E8E;" d="M395.587,247.906h-27.52c-10.271,0-18.625,8.386-18.625,18.696v108.401     c0,10.31,8.354,18.696,18.625,18.696h27.52c10.31,0,18.696-8.386,18.696-18.696V266.602     C414.284,256.292,405.897,247.906,395.587,247.906z M406.784,375.003c0,6.174-5.022,11.196-11.196,11.196h-27.52     c-6.135,0-11.125-5.022-11.125-11.196V266.602c0-6.174,4.99-11.196,11.125-11.196h27.52c6.174,0,11.196,5.022,11.196,11.196     V375.003z"/><path style="fill:#332E8E;" d="M135.895,305.94c-28.066,0-50.898,22.832-50.898,50.898s22.832,50.898,50.898,50.898     c28.064,0,50.896-22.832,50.896-50.898S163.959,305.94,135.895,305.94z M135.895,400.237c-23.931,0-43.398-19.468-43.398-43.398     s19.468-43.398,43.398-43.398c23.928,0,43.396,19.468,43.396,43.398S159.823,400.237,135.895,400.237z"/><path style="fill:#332E8E;" d="M135.922,340.42c3.577,0,6.484,2.939,6.484,6.55c0,2.07,1.68,3.75,3.75,3.75s3.75-1.68,3.75-3.75     c0-6.451-4.356-11.887-10.264-13.53v-1.424c0-2.07-1.68-3.75-3.75-3.75s-3.75,1.68-3.75,3.75v1.434     c-5.915,1.657-10.271,7.083-10.271,13.519c0,7.624,6.166,13.833,13.794,13.971c0.077,0.005,0.15,0.023,0.227,0.023     c0.021,0,0.041-0.006,0.063-0.006c3.561,0.019,6.451,2.948,6.451,6.547c0,3.574-2.908,6.482-6.484,6.482     c-3.611,0-6.55-2.908-6.55-6.482c0-2.07-1.68-3.75-3.75-3.75s-3.75,1.68-3.75,3.75c0,6.405,4.356,11.805,10.271,13.453v0.702     c0,2.07,1.68,3.75,3.75,3.75s3.75-1.68,3.75-3.75v-0.691c5.907-1.635,10.264-7.044,10.264-13.464     c0-7.733-6.254-14.027-13.946-14.048c-0.023,0-0.045-0.007-0.068-0.007c-0.003,0-0.006,0.001-0.01,0.001     c-3.593-0.021-6.511-2.917-6.511-6.48C129.372,343.36,132.311,340.42,135.922,340.42z"/><path style="fill:#332E8E;" d="M393.217,311.165h-1.699v-1.733c0-5.305-4.331-9.619-9.656-9.619     c-5.305,0-9.619,4.314-9.619,9.619v1.733h-1.699c-5.325,0-9.656,4.331-9.656,9.653c0,5.305,4.331,9.622,9.656,9.622h1.699v1.699     c0,5.322,4.314,9.653,9.619,9.653c5.325,0,9.656-4.331,9.656-9.653v-1.699h1.699c5.305,0,9.619-4.316,9.619-9.622     C402.836,315.496,398.522,311.165,393.217,311.165z M393.217,322.94h-5.449c-2.07,0-3.75,1.68-3.75,3.75v5.449     c0,1.187-0.967,2.153-2.156,2.153c-1.169,0-2.119-0.967-2.119-2.153v-5.449c0-2.07-1.68-3.75-3.75-3.75h-5.449     c-1.189,0-2.156-0.952-2.156-2.122c0-1.187,0.967-2.153,2.156-2.153h5.449c2.07,0,3.75-1.68,3.75-3.75v-5.483     c0-1.169,0.95-2.119,2.119-2.119c1.189,0,2.156,0.95,2.156,2.119v5.483c0,2.07,1.68,3.75,3.75,3.75h5.449     c1.169,0,2.119,0.967,2.119,2.153C395.336,321.988,394.386,322.94,393.217,322.94z"/></g></g></g><g id="Layer_1"/></svg>